<?xml version="1.0" encoding="iso-8859-1"?>
<!-- Uploaded to: SVG Repo, www.svgrepo.com, Generator: SVG Repo Mixer Tools -->
<!DOCTYPE svg PUBLIC "-//W3C//DTD SVG 1.1//EN" "http://www.w3.org/Graphics/SVG/1.1/DTD/svg11.dtd">
<svg fill="#000000" version="1.1" id="Capa_1" xmlns="http://www.w3.org/2000/svg" xmlns:xlink="http://www.w3.org/1999/xlink" 
	 width="800px" height="800px" viewBox="0 0 177.594 177.594"
	 xml:space="preserve">
<g>
	<g>
		<path d="M177.587,127.468c-0.042-6.042-0.073-12.09-0.114-18.131c-0.101-16.919-0.211-33.833-0.31-50.752
			c-0.033-5.289-0.069-10.577-0.101-15.866c0-0.507,0-1.011-0.011-1.522c0-0.216-0.01-0.278-0.021-0.302
			c0.011-0.074,0.021-0.123,0.031-0.226c0.33-3.145-1.563-6.627-3.106-9.197c-0.296-0.488-0.683-0.863-1.005-1.333c0,0,0,0,0-0.005
			c-0.15-0.375-0.382-0.648-0.645-0.869c-5.014-7.026-12.132-11.73-20.048-15.166c-12.163-5.268-25.359-7.808-38.483-9.11
			c-12.912-1.276-26.383-1.436-38.95,2.221c-12.187,3.541-22.271,11.417-28.903,22.2c-3.462,5.627-5.811,12.278-4.821,18.943
			c0.815,5.509,4.047,10.239,8.278,13.745c10.396,8.628,25.276,11.229,38.396,11.568c12.647,0.328,27.543-1.467,37.907-9.381
			c3.906-2.976,7.022-6.992,7.947-11.911c1.355-7.191-1.774-14.407-6.641-19.593c-5.999-6.397-14.95-9.407-23.585-8.951
			c-12.612,0.667-23.466,8.597-31.604,17.691c-1.843,2.077,1.189,5.123,3.042,3.052c8.554-9.556,19.995-17.527,33.382-16.352
			c8.555,0.753,16.971,6.365,20.179,14.455c2.077,5.257,1.563,10.977-2.163,15.305c-3.623,4.21-8.988,6.648-14.174,8.305
			c-13.219,4.215-28.258,4.107-41.662,0.877c-10.068-2.426-23.804-8.117-25.142-20.009c-0.837-7.448,3.307-14.731,7.709-20.388
			c7.987-10.254,19.731-15.527,32.343-17.414c13.865-2.076,28.694-0.646,42.379,1.923c11.123,2.092,22.45,5.452,32.048,11.596
			c3.764,2.406,6.75,5.443,9.333,9.07c1.164,2.898,2.231,5.877,2.479,9.006c0.197,2.488-0.483,4.887-1.114,7.268
			c-0.986,3.703-2.246,7.336-3.905,10.798c-1.896,3.964-4.395,7.528-7.323,10.72h-3.322c0,1.097,0,2.188,0,3.278
			c-1.166,1.021-2.353,2.021-3.638,2.924c-7.911,5.565-17.298,8.639-26.642,10.791c-13.438,3.084-27.554,4.414-41.325,4.462
			c-20.357,0.053-41.418-4.661-57.673-17.47c-8.903-7.021-16.455-16.777-20.654-26.887c-0.236-0.578-0.37-1.194-0.58-1.784
			c0-1.093,0-2.184,0-3.271C4.96,41.787,4.662,41.8,4.328,41.816c-0.055-0.215-0.152-0.414-0.205-0.625
			C3.539,38.81,0,39.37,0,41.771c0,26.872,0,53.745,0,80.61c0,4.877,0,9.749,0,14.626c0,0.33,0.021,0.592,0.042,0.87L0,140.077
			l1.21,0.94c0.091,0.13,0.154,0.246,0.262,0.388c7.677,9.964,18.751,17.123,30.174,22.058c23.693,10.227,51.231,11.844,76.538,8.18
			c13.14-1.906,25.696-6.199,37.538-12.138c6.599-3.312,12.914-7.159,19.077-11.211c4.746-3.124,9.364-7.214,11.654-12.525
			C177.683,132.922,177.603,130.45,177.587,127.468z M173.273,131.678c-0.283,1.623-1.014,3.064-1.849,4.451
			c-3.701,6.121-10.677,9.79-16.588,13.382c-11.742,7.123-24.247,12.792-37.607,16.025c-14.006,3.381-28.685,3.963-43.021,3.14
			c-12.434-0.719-24.804-3.04-36.5-7.359c-8.406-3.108-16.706-7.518-23.777-13.293c-1.563-19.675,1.006-69.441,0.77-80.018
			c6.43,7.268,14.223,13.204,22.927,17.559c0-2.473,0-3.746,0-3.746s0,1.273,0,3.746c1.667,0.835,3.365,1.614,5.097,2.333
			c7.044,2.924,14.352,4.777,21.78,5.964c0,9.874,0,19.742,0,29.616h5.375c0,0,0-17.48,0-28.798
			c10.659,1.197,21.518,0.914,32.253-0.109c0,15.013,0,30.021,0,45.033h5.376c0,0,0-28.792,0-45.575
			c2.803-0.33,5.609-0.702,8.388-1.117c6.157-0.925,12.419-2.226,18.488-4.065c0,10.018,0,19.478,0,29.253
			c0,5.373,5.375,5.373,5.375,0c0,0,0-19.692,0-31.088c5.771-2.155,11.25-4.903,16.127-8.546c0,7.837,0,15.669,0,23.507
			c0,5.375,5.376,5.375,5.376,0c0,0,0-16.831,0-28.158c1.47-1.467,2.902-3.002,4.199-4.703c3.254-4.258,5.575-9.147,7.38-14.185
			c0.089,14.336,0.18,28.667,0.268,43.003c0.068,11.065,0.133,22.144,0.205,33.209C173.32,131.621,173.294,131.551,173.273,131.678z
			"/>
	</g>
</g>
</svg>