<?xml version="1.0" ?><!-- Uploaded to: SVG Repo, www.svgrepo.com, Generator: SVG Repo Mixer Tools -->
<svg width="800px" height="800px" viewBox="0 0 24 24" fill="none" xmlns="http://www.w3.org/2000/svg"><path d="M17 19H4C3.44772 19 3 18.5523 3 18V6C3 5.44772 3.44772 5 4 5H17M17 19H20C20.5523 19 21 18.5523 21 18V6C21 5.44772 20.5523 5 20 5H17M17 19V18M17 5V6" stroke="#000000" stroke-linecap="round" stroke-linejoin="round" stroke-width="2"/><path d="M17 9.00098L17 8.99998" stroke="#000000" stroke-linecap="round" stroke-linejoin="round" stroke-width="2"/><path d="M17 12.001L17 12" stroke="#000000" stroke-linecap="round" stroke-linejoin="round" stroke-width="2"/><path d="M17 15.001L17 15" stroke="#000000" stroke-linecap="round" stroke-linejoin="round" stroke-width="2"/><path d="M7 13L9 15L13 9" stroke="#000000" stroke-linecap="round" stroke-linejoin="round" stroke-width="2"/></svg>